HIERARCHY
ROOT ui
{
	 OFFSET 0 0 0
	 CHANNELS 3 XPosition YPosition Z Position
	 EndSite
	 {
	 OFFSET 0 -1 0
	 }
}
ROOT li
{
	 OFFSET 0 0 0
	 CHANNELS 3 XPosition YPosition Z Position
	 EndSite
	 {
	 OFFSET 0 -1 0
	 }
}
ROOT ul
{
	 OFFSET 0 0 0
	 CHANNELS 3 XPosition YPosition Z Position
	 EndSite
	 {
	 OFFSET 0 -1 0
	 }
}
ROOT ll
{
	 OFFSET 0 0 0
	 CHANNELS 3 XPosition YPosition Z Position
	 EndSite
	 {
	 OFFSET 0 -1 0
	 }
}
ROOT tt
{
	 OFFSET 0 0 0
	 CHANNELS 3 XPosition YPosition Z Position
	 EndSite
	 {
	 OFFSET 0 -1 0
	 }
}
ROOT tb
{
	 OFFSET 0 0 0
	 CHANNELS 3 XPosition YPosition Z Position
	 EndSite
	 {
	 OFFSET 0 -1 0
	 }
}
ROOT td
{
	 OFFSET 0 0 0
	 CHANNELS 3 XPosition YPosition Z Position
	 EndSite
	 {
	 OFFSET 0 -1 0
	 }
}
ROOT v
{
	 OFFSET 0 0 0
	 CHANNELS 3 XPosition YPosition Z Position
	 EndSite
	 {
	 OFFSET 0 -1 0
	 }
}
ROOT bn
{
	 OFFSET 0 0 0
	 CHANNELS 3 XPosition YPosition Z Position
	 EndSite
	 {
	 OFFSET 0 -1 0
	 }
}
MOTION
Frames: 27
Frame Time: 0.002
-0.025498830795288085	4.038420021533966E-4	0		0.5557366943359375	-2.585421630859375	0		-0.8838709106445313	0.09997501373291015	0		-0.6560042114257812	-2.54155908203125	0		2.835366455078125	-0.6461708984375	0		4.22300634765625	-0.7061751098632812	0		5.32858251953125	-0.46204214477539063	0		5.9900478515625	0.37338311767578125	0		-0.10214613342285156	5.912025390625	0		
0.028093280792236327	4.385550022125244E-4	0		0.5532627563476562	-2.587034423828125	0		-0.9722671508789062	0.10195198059082031	0		-0.6655161743164062	-2.549100830078125	0		2.774732666015625	-0.6784534912109375	0		4.2153701171875	-0.738831787109375	0		5.31501318359375	-0.485678955078125	0		5.98064892578125	0.37370172119140627	0		-0.16951858520507812	5.898849609375	0		
-0.017370857238769532	-0.006861135005950928	0		0.5716849975585937	-2.6037626953125	0		-0.8897123413085938	0.09683712005615235	0		-0.6411781616210938	-2.5788427734375	0		2.7630185546875	-0.7220311889648438	0		4.23083056640625	-0.7556161499023437	0		5.31949560546875	-0.50041015625	0		5.9852958984375	0.3819521484375	0		-0.13379066467285156	5.90202490234375	0		
0.03128025627136231	0.004244772911071777	0		0.5472589721679687	-2.596190673828125	0		-0.9580762939453125	0.10572705078125	0		-0.6495843505859376	-2.568350830078125	0		2.7553291015625	-0.7606136474609375	0		4.2093828125	-0.7571373901367188	0		5.3129833984375	-0.51304736328125	0		5.9848837890625	0.3822578735351562	0		-0.10004598999023437	5.9092314453125	0		
-0.024140596389770508	0.006050902843475342	0		0.5638055419921875	-2.59186767578125	0		-0.88553076171875	0.10171170806884766	0		-0.5861696166992187	-2.584312744140625	0		2.726636474609375	-0.7980371704101562	0		4.1816640625	-0.798595703125	0		5.30241650390625	-0.532635498046875	0		5.98841015625	0.3745605163574219	0		-0.10035945129394531	5.90967919921875	0		
-0.01865986442565918	-0.005525148868560791	0		0.5662182006835937	-2.606434814453125	0		-0.9720133056640625	0.0957576904296875	0		-0.6607420043945312	-2.596351318359375	0		2.70097119140625	-0.8294597778320313	0		4.1590908203125	-0.8160655517578125	0		5.287943359375	-0.5361754150390625	0		5.97897705078125	0.37497100830078123	0		-0.10068955230712891	5.9101435546875	0		
0.025938989639282227	0.0026560099124908446	0		0.5547588500976562	-2.59989404296875	0		-0.8954661865234375	0.09574457550048829	0		-0.617341064453125	-2.611151611328125	0		2.68223974609375	-0.8689097290039063	0		4.18435205078125	-0.8568319702148437	0		5.29831787109375	-0.560859619140625	0		5.97853076171875	0.37534307861328126	0		-0.17012184143066406	5.89807958984375	0		
-0.032544742584228514	5.315799713134766E-4	0		0.5362103271484375	-2.605292236328125	0		-0.9679613037109375	0.09172849273681641	0		-0.6499159545898437	-2.620437255859375	0		2.6695546875	-0.8993831787109375	0		4.14695947265625	-0.8431661987304687	0		5.270806640625	-0.566275146484375	0		5.98301220703125	0.3667008056640625	0		-0.13445489501953126	5.9033359375	0		
0.03896393966674805	-0.0014423660039901733	0		0.5746317138671875	-2.614055908203125	0		-0.9734030151367188	0.0972804946899414	0		-0.6394876098632812	-2.627996337890625	0		2.610965576171875	-0.9135369262695312	0		4.13915771484375	-0.889681396484375	0		5.25919140625	-0.5857791748046876	0		5.98660107421875	0.37608206176757814	0		-0.099798095703125	5.90960888671875	0		
-0.02948832130432129	0.004522439956665039	0		0.5641661376953125	-2.604485107421875	0		-0.9789150390625	0.09384129333496094	0		-0.6480665283203125	-2.63542041015625	0		2.63315185546875	-0.9602144165039063	0		4.12359814453125	-0.8981295166015625	0		5.243658203125	-0.5912409057617187	0		5.99006640625	0.368480224609375	0		-0.10020443725585937	5.90912353515625	0		
0.024013153076171877	0.004683149814605713	0		0.5965262451171875	-2.620192138671875	0		-0.8964463500976563	0.0888215789794922	0		-0.6506127319335937	-2.6368779296875	0		2.58544921875	-0.9884155883789062	0		4.0949091796875	-0.9244774780273437	0		5.237068359375	-0.603748291015625	0		5.98157421875	0.36897314453125	0		-0.10062218475341797	5.9096455078125	0		
-0.024573738098144532	-0.00647157621383667	0		0.5649736328125	-2.621467529296875	0		-0.9069462280273437	0.09042403411865234	0		-0.5862611694335937	-2.652779052734375	0		2.567776123046875	-1.0108085327148437	0		4.056257080078125	-0.9437487182617188	0		5.216455078125	-0.6181513671875	0		5.97612451171875	0.37745779418945313	0		-0.1350969696044922	5.9043984375	0		
0.0199604549407959	0.0017533479928970336	0		0.5644259643554688	-2.620947998046875	0		-0.89652392578125	0.08188670349121094	0		-0.6339620361328125	-2.674931640625	0		2.494147705078125	-1.02482275390625	0		4.075533935546875	-0.9724014892578124	0		5.207837890625	-0.6316279296875	0		5.98055029296875	0.3688833923339844	0		-0.13746197509765626	5.91793896484375	0		
-0.018573596954345704	0.001531777024269104	0		0.5788635864257813	-2.6215302734375	0		-0.9649961547851562	0.09087541961669922	0		-0.5865859985351562	-2.684722412109375	0		2.485535400390625	-1.0352706298828125	0		4.029010009765625	-0.9696114501953125	0		5.18832568359375	-0.6280284423828125	0		5.989025390625	0.36928524780273436	0		-0.1340296173095703	5.90343798828125	0		
0.03186059951782227	-0.002291064977645874	0		0.5943206176757813	-2.618124267578125	0		-0.89853466796875	0.09095413208007813	0		-0.6321885986328125	-2.689895751953125	0		2.467833740234375	-1.05766064453125	0		4.0072353515625	-1.002989013671875	0		5.1646494140625	-0.6474019775390625	0		5.970498046875	0.3708681335449219	0		-0.10047178649902344	5.90972998046875	0		
-0.03262519073486328	0.0076495809555053714	0		0.5627373657226562	-2.619409912109375	0		-0.8981353149414063	0.083466552734375	0		-0.5668552856445312	-2.703822265625	0		2.4531494140625	-1.0760765380859374	0		3.98557861328125	-1.0173713989257813	0		5.14500390625	-0.6608062133789062	0		5.97895361328125	0.37126669311523436	0		-0.10096791076660157	5.9102421875	0		
0.019687667846679687	-0.011206443786621095	0		0.56014453125	-2.620901123046875	0		-0.9966771850585937	0.08663283538818359	0		-0.6484403076171875	-2.70377294921875	0		2.386510009765625	-1.08615234375	0		3.979817138671875	-1.04586962890625	0		5.12939453125	-0.6672454223632812	0		5.9693984375	0.3717786254882812	0		-0.1004849853515625	5.90973583984375	0		
-0.027832996368408202	-0.0034048840999603273	0		0.5715145874023437	-2.6265009765625	0		-0.903287841796875	0.08049303436279297	0		-0.5671466064453125	-2.720834228515625	0		2.36581884765625	-1.102550537109375	0		3.945267822265625	-1.0411865234375	0		5.12476806640625	-0.674771484375	0		5.96883251953125	0.37221728515625	0		-0.1700867919921875	5.89868701171875	0		
0.019668460845947266	0.008739798545837403	0		0.565003173828125	-2.612996826171875	0		-0.9768368530273438	0.08546071624755859	0		-0.6427111206054688	-2.71485595703125	0		2.368157470703125	-1.1131209716796875	0		3.92247265625	-1.071600341796875	0		5.1040849609375	-0.68920703125	0		5.97725732421875	0.37257760620117186	0		-0.13657862854003905	5.90492724609375	0		
-0.025970226287841798	0.0014929070472717285	0		0.588347900390625	-2.619714111328125	0		-0.9004237060546875	0.08539828491210938	0		-0.5723817749023438	-2.72388037109375	0		2.319475830078125	-1.125366943359375	0		3.917803955078125	-1.0821563720703125	0		5.08844775390625	-0.6956969604492188	0		5.98062060546875	0.36495046997070313	0		-0.1361221923828125	5.90437109375	0		
0.024411304473876953	-0.0024239630699157714	0		0.5597489013671875	-2.6171025390625	0		-0.9050401611328125	0.08186084747314454	0		-0.6410416259765624	-2.729988037109375	0		2.2838359375	-1.130722900390625	0		3.863178466796875	-1.08539794921875	0		5.0618056640625	-0.70213623046875	0		5.980033203125	0.36532574462890627	0		-0.10261431121826171	5.91156982421875	0		
0.016772079467773437	-0.008973789215087891	0		0.5851051025390624	-2.620880615234375	0		-0.9106583862304688	0.07830597686767578	0		-0.568714599609375	-2.7380732421875	0		2.26514599609375	-1.143218994140625	0		3.848427734375	-1.1069354248046874	0		5.047046875	-0.725682861328125	0		5.975390625	0.35770077514648435	0		-0.13719842529296875	5.9052041015625	0		
-0.03077191162109375	-0.0012797609567642212	0		0.577406005859375	-2.632462890625	0		-0.974228271484375	0.08211759185791015	0		-0.6353592529296875	-2.741244384765625	0		2.25848828125	-1.150824462890625	0		3.84368896484375	-1.126569580078125	0		5.022435546875	-0.7271915893554688	0		5.97085595703125	0.3660452880859375	0		-0.13574697875976563	5.9035673828125	0		
0.031626930236816404	-0.0023597869873046877	0		0.607798828125	-2.63033203125	0		-0.8868291625976562	0.08087754821777343	0		-0.6210078735351563	-2.7449921875	0		2.223925048828125	-1.1442696533203125	0		3.815119140625	-1.12107177734375	0		5.01676904296875	-0.7368596801757813	0		5.9743212890625	0.3743038330078125	0		-0.13727230834960938	5.9049228515625	0		
-0.028931169509887694	0.0033661859035491945	0		0.5613072509765625	-2.610707763671875	0		-0.9033805541992187	0.08731421661376954	0		-0.5746048583984374	-2.74098681640625	0		2.212224365234375	-1.157900146484375	0		3.7743037109375	-1.1515218505859375	0		4.97509521484375	-0.747314208984375	0		5.9646298828125	0.35961932373046873	0		-0.13780203247070313	5.9052431640625	0		
0.021446508407592775	-6.914659738540649E-4	0		0.5846360473632812	-2.617588134765625	0		-0.9130277709960938	0.079675048828125	0		-0.6452890014648438	-2.749214111328125	0		2.125673828125	-1.1490499267578125	0		3.7706220703125	-1.1622537841796876	0		4.95539306640625	-0.7619483032226563	0		5.95098583984375	0.35193096923828127	0		-0.13932339477539063	5.90654052734375	0		
-0.03314617156982422	-6.352099776268006E-5	0		0.5560270385742188	-2.615143798828125	0		-0.913620849609375	0.07994507598876953	0		-0.574976806640625	-2.75843115234375	0		2.1200126953125	-1.1567796630859375	0		3.73988623046875	-1.1808311767578126	0		4.94771728515625	-0.7726937866210938	0		5.9634501953125	0.36003512573242186	0		-0.10381781768798828	5.91155615234375	0		
